:SAMPLES-PER-SECOND 30
:FULLY-SPECIFIED
:DEGREES
398
root  31.5502 37.7165 0.410558 -78.5415 -83.3149 76.687
RightUpLeg  10.7533 8.34225 -8.64629
RightLeg  35.7989 24.8669 17.8479
RightFoot  -12.4418 -0.0693079 3.46115
RightToes  -2.32831e-009 0 -3.6325e-017
Spine  5.30712 3.3403 -2.01225
Spine1  6.88915 4.21615 -4.57071
HEad  -24.3533 -4.08104 5.40331
LeftShoulder1  -0.824444 5.61734 -32.8419
LeftArm  -8.66569 24.6155 -40.998
LeftForeArm  40.1068 -6.23738 -6.29573
LeftHand  -0.427316 11.1868 -6.99633
RightShoulder  -1.21251 -6.83791 29.8645
RightArm  6.83496 -1.40014 37.2732
RightForeArm  16.2067 46.5198 10.6691
RightHand  -0.229498 6.47793 -2.5636
LeftUpLeg  -18.1405 4.26935 -8.29709
LeftLeg  26.4223 1.2108 1.00382
LeftFoot  -6.78397 -0.167346 5.22402
LeftToes  8.91272e-011 -1.70619e-011 7.36378e-012
399
root  30.619 37.7603 0.538954 -94.4636 -82.781 92.5479
RightUpLeg  5.02066 8.25142 -10.6662
RightLeg  46.4778 21.583 22.2888
RightFoot  -6.07112 -0.758229 14.5534
RightToes  -2.32831e-009 0 -3.6325e-017
Spine  5.37729 3.35988 -4.49778
Spine1  7.07923 3.74168 -4.3246
HEad  -24.7203 -2.69568 4.25929
LeftShoulder1  -0.81578 5.58792 -32.9713
LeftArm  -8.56184 25.5124 -40.5981
LeftForeArm  40.6623 -6.532 -6.30455
LeftHand  -0.518947 11.9025 -7.73844
RightShoulder  -1.22714 -6.8735 29.9098
RightArm  9.22101 -1.10536 37.3829
RightForeArm  10.7451 43.1376 9.77826
RightHand  -0.395599 6.53811 -4.17163
LeftUpLeg  -16.4088 5.17706 -8.95666
LeftLeg  26.5306 2.11393 1.50582
LeftFoot  -8.54904 -0.0686203 4.93151
LeftToes  8.91272e-011 -1.70619e-011 7.36378e-012
400
root  29.6364 37.8726 0.630839 -103.233 -82.391 100.662
RightUpLeg  -0.108449 7.93822 -11.3942
RightLeg  54.6755 16.5279 23.0386
RightFoot  1.57497 -2.25145 20.2415
RightToes  -2.32831e-009 0 -3.6325e-017
Spine  5.85476 2.9914 -6.29619
Spine1  7.35512 2.92719 -3.98352
HEad  -25.1021 -1.02781 3.59779
LeftShoulder1  -0.774249 5.4987 -32.6535
LeftArm  -8.15334 25.1521 -40.3219
LeftForeArm  40.5556 -6.43198 -6.50295
LeftHand  -0.56502 12.2762 -8.03074
RightShoulder  -1.30084 -7.03538 30.3435
RightArm  11.1275 -1.44957 37.7119
RightForeArm  11.2661 40.2674 8.76985
RightHand  -0.111731 6.80067 -1.43321
LeftUpLeg  -13.5601 5.84211 -9.06342
LeftLeg  25.8522 2.72593 1.80306
LeftFoot  -10.1863 0.0147274 4.57146
LeftToes  8.91272e-011 -1.70619e-011 7.36378e-012
401
root  28.6074 38.0826 0.720296 -115.02 -82.4412 112.427
RightUpLeg  -5.67955 6.91728 -11.3481
RightLeg  60.1526 11.4677 20.2179
RightFoot  1.15969 -2.00584 18.1615
RightToes  -2.32831e-009 0 -3.6325e-017
Spine  5.8024 2.83989 -7.25524
Spine1  6.94604 2.37354 -2.86894
HEad  -25.1709 -0.0992578 2.68837
LeftShoulder1  -0.814458 5.56319 -33.3745
LeftArm  -7.35183 23.7249 -39.0898
LeftForeArm  40.0027 -6.34912 -6.8333
LeftHand  -0.518769 12.3151 -7.2555
RightShoulder  -1.29043 -7.00835 30.3273
RightArm  12.9788 -3.05441 37.9795
RightForeArm  12.2809 37.3742 7.82143
RightHand  -0.0509832 7.55043 -0.823632
LeftUpLeg  -10.8501 6.57546 -8.36281
LeftLeg  24.2407 3.08483 1.75476
LeftFoot  -11.3965 0.0708064 3.99931
LeftToes  8.91272e-011 -1.70619e-011 7.36378e-012
402
root  27.5555 38.3338 0.811205 -125.045 -82.6979 122.544
RightUpLeg  -10.9432 5.52856 -10.5901
RightLeg  62.3288 7.94634 15.6094
RightFoot  -0.893733 -1.38168 15.0355
RightToes  -2.32831e-009 0 -3.6325e-017
Spine  5.3373 2.31835 -7.20044
Spine1  7.01675 1.8017 -2.39108
HEad  -24.6199 1.18196 2.55191
LeftShoulder1  -0.91005 5.79352 -33.5709
LeftArm  -7.31887 21.1366 -38.3985
LeftForeArm  39.1528 -6.23396 -6.81493
LeftHand  -0.459901 12.3493 -6.2498
RightShoulder  -1.2909 -7.01961 30.2218
RightArm  14.8767 -4.68019 38.9589
RightForeArm  12.0465 33.542 6.76969
RightHand  -0.0886552 6.80219 -1.19089
LeftUpLeg  -7.92016 6.40737 -7.29795
LeftLeg  22.0431 4.18652 1.62812
LeftFoot  -12.1639 0.100749 3.81548
LeftToes  8.91272e-011 -1.70619e-011 7.36378e-012
403
root  26.4903 38.5583 0.876268 -134.062 -83.0788 131.418
RightUpLeg  -15.1039 3.8275 -9.24556
RightLeg  61.0824 5.86818 10.9417
RightFoot  -0.988206 -1.08512 11.838
RightToes  -2.32831e-009 0 -3.6325e-017
Spine  5.25935 1.81503 -7.12097
Spine1  6.85491 1.17826 -1.52073
HEad  -24.3162 2.0481 2.37018
LeftShoulder1  -0.904878 5.79231 -33.3581
LeftArm  -7.85552 18.4729 -38.2446
LeftForeArm  37.9171 -6.74084 -6.57793
LeftHand  -0.335094 11.2163 -5.21455
RightShoulder  -1.24881 -6.89649 30.3029
RightArm  16.5343 -6.63261 39.6977
RightForeArm  10.9635 28.9274 5.65028
RightHand  -0.0536049 6.84159 -0.862146
LeftUpLeg  -4.63632 6.22976 -6.06368
LeftLeg  19.6538 4.91624 1.22642
LeftFoot  -12.7429 0.12255 3.77719
LeftToes  8.91272e-011 -1.70619e-011 7.36378e-012
404
root  25.4664 38.7034 0.947669 -141.552 -83.5054 138.95
RightUpLeg  -18.5992 2.23728 -7.7284
RightLeg  56.7393 4.70429 7.28202
RightFoot  -2.17685 -0.807226 9.87496
RightToes  -2.32831e-009 0 -3.6325e-017
Spine  5.84698 1.18779 -6.46953
Spine1  5.88107 0.611182 -1.24801
HEad  -24.3141 2.83254 2.808
LeftShoulder1  -0.84443 5.66181 -32.9649
LeftArm  -8.02879 15.5454 -37.9249
LeftForeArm  35.9112 -7.62987 -6.55216
LeftHand  -0.279224 11.5446 -3.94569
RightShoulder  -1.29488 -6.95617 31.0065
RightArm  19.1265 -8.09401 39.9185
RightForeArm  8.2766 23.4412 4.76047
RightHand  -0.0596431 7.38163 -0.898848
LeftUpLeg  -1.82444 6.17192 -5.06259
LeftLeg  17.5617 5.33719 0.968691
LeftFoot  -13.4046 0.147766 3.6954
LeftToes  8.91272e-011 -1.70619e-011 7.36378e-012
405
root  24.4393 38.7409 0.965188 -148.79 -83.6696 145.823
RightUpLeg  -20.6827 1.19974 -6.19694
RightLeg  49.6001 4.31891 5.0741
RightFoot  -3.12531 -0.678064 9.12987
RightToes  -2.32831e-009 0 -3.6325e-017
Spine  6.56627 0.869821 -6.70182
Spine1  5.56055 0.0400982 0.182929
HEad  -24.6773 3.33549 2.36497
LeftShoulder1  -0.841259 5.64196 -33.1699
LeftArm  -8.37306 11.8208 -37.6142
LeftForeArm  33.414 -8.54875 -6.39056
LeftHand  -0.246614 12.1442 -2.98234
RightShoulder  -1.23234 -6.8163 30.6941
RightArm  18.7218 -9.39387 40.7314
RightForeArm  8.26703 17.4526 4.99134
RightHand  -0.104173 7.76853 -1.28187
LeftUpLeg  1.16392 6.72096 -4.10404
LeftLeg  15.9949 5.3147 0.627766
LeftFoot  -14.3619 0.193214 4.07462
LeftToes  8.91272e-011 -1.70619e-011 7.36378e-012
